<svg xmlns="http://www.w3.org/2000/svg" viewBox="0 0 100 100" fill="none" role="img" aria-label="Banritools">
  <path fill="currentColor" fill-rule="evenodd" d="M50 19 L64.72 27.5 L64.72 44.5 L50 53 L35.28 44.5 L35.28 27.5 Z M57.5 36 A7.5 7.5 0 1 0 42.5 36 A7.5 7.5 0 1 0 57.5 36 Z"></path>
  <path fill="currentColor" fill-rule="evenodd" d="M33 47 L47.72 55.5 L47.72 72.5 L33 81 L18.28 72.5 L18.28 55.5 Z M40.5 64 A7.5 7.5 0 1 0 25.5 64 A7.5 7.5 0 1 0 40.5 64 Z"></path>
  <path fill="currentColor" fill-rule="evenodd" d="M67 47 L81.72 55.5 L81.72 72.5 L67 81 L52.28 72.5 L52.28 55.5 Z M74.5 64 A7.5 7.5 0 1 0 59.5 64 A7.5 7.5 0 1 0 74.5 64 Z"></path>
</svg>